<?xml version="1.0" standalone="no"?>
<!DOCTYPE svg PUBLIC "-//W3C//DTD SVG 20010904//EN"
 "http://www.w3.org/TR/2001/REC-SVG-20010904/DTD/svg10.dtd">
<svg version="1.0" xmlns="http://www.w3.org/2000/svg"
 width="461.000000pt" height="461.000000pt" viewBox="0 0 461.000000 461.000000"
 preserveAspectRatio="xMidYMid meet">
<metadata>
Created by potrace 1.14, written by Peter Selinger 2001-2017
</metadata>
<g transform="translate(0.000000,461.000000) scale(0.100000,-0.100000)"
fill="#000000" stroke="none">
<path d="M2020 4506 c-204 -86 -221 -95 -321 -176 -58 -47 -119 -105 -136
-130 -21 -33 -42 -94 -76 -230 -67 -268 -78 -338 -77 -474 l1 -119 -31 7 c-16
3 -43 9 -58 12 -25 5 -34 0 -72 -46 l-43 -51 2 -84 c5 -187 90 -330 221 -370
57 -17 64 -23 80 -60 10 -22 21 -69 25 -105 9 -98 83 -262 172 -387 l73 -101
0 -71 c0 -39 -3 -71 -7 -71 -3 0 -14 6 -22 14 -9 8 -41 24 -71 36 -48 19 -59
20 -100 9 -37 -10 -65 -31 -162 -127 l-117 -115 20 -38 c10 -21 19 -42 19 -47
0 -8 -103 -62 -119 -62 -18 0 -212 -119 -331 -203 -81 -57 -171 -134 -256
-218 l-131 -129 -76 -173 c-61 -138 -87 -213 -131 -382 -49 -188 -57 -230 -72
-408 -9 -108 -14 -200 -11 -203 3 -4 949 -3 2102 1 l2095 7 0 157 c0 344 -62
617 -205 901 -71 141 -76 148 -182 251 -59 58 -126 121 -149 141 -37 32 -39
36 -23 46 10 7 20 30 24 56 l7 45 -106 120 c-88 99 -134 140 -270 240 -90 67
-172 121 -182 121 -9 0 -57 -8 -105 -17 -86 -16 -90 -16 -218 8 l-131 24 0 52
c0 64 26 105 110 174 50 41 62 59 105 157 l50 112 80 0 81 0 46 48 c66 67 103
142 127 255 27 126 28 225 1 276 -16 33 -26 40 -60 46 -22 4 -40 8 -40 10 0 1
11 32 25 68 39 104 42 209 10 412 -14 94 -28 189 -32 213 -4 28 -30 84 -74
159 -38 63 -69 120 -69 125 0 6 -35 48 -77 95 -74 81 -84 88 -223 158 -136 68
-156 75 -299 104 -126 25 -177 31 -275 30 l-121 -1 -215 -92z"/>
</g>
</svg>
